<?xml version="1.0" encoding="UTF-8" standalone="no"?>
<!-- Created with Inkscape (http://www.inkscape.org/) -->

<svg
   width="60.038792mm"
   height="143.65477mm"
   viewBox="0 0 60.038792 143.65477"
   version="1.1"
   id="svg1"
   xml:space="preserve"
   xmlns="http://www.w3.org/2000/svg"
   xmlns:svg="http://www.w3.org/2000/svg"><defs
     id="defs1" /><g
     id="layer1"
     transform="translate(-80.6476,-59.246552)"><path
       style="display:inline;fill:none;stroke:#000000;stroke-width:0.474996;stroke-linecap:square;stroke-dasharray:none;paint-order:stroke fill markers"
       d="m 110.73472,120.84269 c 2.90995,0.14025 5.33135,0.20555 7.98486,0.46454 1.60258,0.15641 3.20236,0.36424 4.78566,0.65736 0.99718,0.18469 1.96015,0.53857 2.96254,0.69243 0.5989,0.0919 1.27723,0.4199 1.81263,0.13622 0.58518,-0.31006 0.71593,-1.11971 0.98943,-1.72285 0.62478,-1.37778 0.63086,-1.586 1.47135,-4.29334 0.84048,-2.70736 2.12049,-6.99852 3.45083,-11.44793 -3.64622,-0.9992 -6.62354,-2.04658 -10.01191,-2.75258 -2.20472,-0.45939 -4.44771,-0.72664 -6.68768,-0.95977 -2.06174,-0.21454 -4.13347,-0.34528 -6.20554,-0.40317 -0.33234,-0.009 -0.6651,-0.002 -0.9974,0.009 -2.07184,0.0657 -4.14541,0.14677 -6.20942,0.33832 -2.23316,0.20735 -4.466937,0.46156 -6.670887,0.87698 -3.40381,0.64158 -6.43227,1.52811 -10.08872,2.48918 1.28377,4.46305 2.56751,8.92604 3.37966,11.64202 0.81216,2.71598 0.93428,3.06346 1.4264,4.30849 0.49215,1.24503 0.38948,1.41693 0.9714,1.73308 0.53242,0.28923 1.21413,-0.0317 1.81395,-0.11737 1.00393,-0.1434 1.97056,-0.48726 2.96962,-0.66144 1.58627,-0.27656 3.188137,-0.46764 4.792267,-0.60734 2.65606,-0.23129 5.078,-0.27115 7.98926,-0.38111"
       id="path2" /><path
       style="fill:none;stroke:#000000;stroke-width:0.211667;stroke-linecap:square;stroke-dasharray:none;paint-order:stroke fill markers"
       d="m 158.78314,137.30271 c -0.44903,0.12044 -0.92676,0.24858 -1.33068,0.34982 -0.40391,0.10123 -0.8443,0.20322 -2.15539,0.53593 -1.31109,0.33271 -3.51922,0.90224 -4.89397,1.20082 -1.37476,0.29857 -1.91606,0.32617 -2.49882,0.34549 -0.58275,0.0193 -1.20691,0.0303 -4.01022,0.0331 -2.80331,0.003 -7.78555,-0.003 -12.76789,-0.008 -2.8723,-0.88379 -5.74461,-1.76757 -8.61691,-2.65136 4.84977,-0.0663 9.69955,-0.13257 14.4969,-0.14637 4.79734,-0.0138 5.07473,-0.0115 11.61229,0.10661 6.53757,0.11816 6.65393,0.12302 8.64359,0.20607 z"
       id="path10"
       transform="matrix(0,2.2440734,-2.2440734,0,442.99611,-168.97888)" /><path
       style="fill:none;stroke:#000000;stroke-width:0.211667;stroke-linecap:square;stroke-dasharray:none;paint-order:stroke fill markers"
       d="m 137.09586,137.00473 c 0.15328,0.32727 0.30657,0.65455 0.42464,1.006 0.11807,0.35145 0.20092,0.72704 0.25478,1.01911 0.0539,0.29206 0.0787,0.50057 0.10359,0.7091"
       id="path3"
       transform="matrix(0,2.2440734,-2.2440734,0,442.99611,-168.97888)" /><path
       style="fill:none;stroke:#000000;stroke-width:0.211667;stroke-linecap:square;stroke-dasharray:none;paint-order:stroke fill markers"
       d="m 138.52097,137.00472 c 0.0677,0.26653 0.13533,0.53304 0.21197,0.84029 0.0766,0.30725 0.16226,0.65525 0.21474,0.98114 0.0525,0.3259 0.0718,0.6297 0.0911,0.9335"
       id="path31"
       transform="matrix(0,2.2440734,-2.2440734,0,442.99611,-168.97888)" /><path
       style="fill:none;stroke:#000000;stroke-width:0.211667;stroke-linecap:square;stroke-dasharray:none;paint-order:stroke fill markers"
       d="m 146.03591,139.72651 c 1.53695,-0.86031 3.07392,-1.72062 4.61088,-2.58093"
       id="path32"
       transform="matrix(0,2.2440734,-2.2440734,0,442.99611,-168.97888)" /><path
       style="fill:none;stroke:#000000;stroke-width:0.211667;stroke-linecap:square;stroke-dasharray:none;paint-order:stroke fill markers"
       d="m 151.76947,137.17458 c -1.432,0.84649 -2.86402,1.693 -4.29603,2.5395"
       id="path33"
       transform="matrix(0,2.2440734,-2.2440734,0,442.99611,-168.97888)" /><path
       style="fill:none;stroke:#000000;stroke-width:0.211667;stroke-linecap:square;stroke-dasharray:none;paint-order:stroke fill markers"
       d="m 158.78314,137.30271 c -0.44903,0.12044 -0.92676,0.24858 -1.33068,0.34982 -0.40391,0.10123 -0.8443,0.20322 -2.15539,0.53593 -1.31109,0.33271 -3.51922,0.90224 -4.89397,1.20082 -1.37476,0.29857 -1.91606,0.32617 -2.49882,0.34549 -0.58275,0.0193 -1.20691,0.0303 -4.01022,0.0331 -2.80331,0.003 -7.78555,-0.003 -12.76789,-0.008 -2.8723,-0.88379 -5.74461,-1.76757 -8.61691,-2.65136 4.84977,-0.0663 9.69955,-0.13257 14.4969,-0.14637 4.79734,-0.0138 5.07473,-0.0115 11.61229,0.10661 6.53757,0.11816 6.65393,0.12302 8.64359,0.20607 z"
       id="path34"
       transform="matrix(0,2.2440734,-2.2440734,0,442.99611,-168.97888)" /><path
       style="fill:none;stroke:#000000;stroke-width:0.211667;stroke-linecap:square;stroke-dasharray:none;paint-order:stroke fill markers"
       d="m 137.09586,137.00473 c 0.15328,0.32727 0.30657,0.65455 0.42464,1.006 0.11807,0.35145 0.20092,0.72704 0.25478,1.01911 0.0539,0.29206 0.0787,0.50057 0.10359,0.7091"
       id="path35"
       transform="matrix(0,2.2440734,-2.2440734,0,442.99611,-168.97888)" /><path
       style="fill:none;stroke:#000000;stroke-width:0.211667;stroke-linecap:square;stroke-dasharray:none;paint-order:stroke fill markers"
       d="m 138.52097,137.00472 c 0.0677,0.26653 0.13533,0.53304 0.21197,0.84029 0.0766,0.30725 0.16226,0.65525 0.21474,0.98114 0.0525,0.3259 0.0718,0.6297 0.0911,0.9335"
       id="path36"
       transform="matrix(0,2.2440734,-2.2440734,0,442.99611,-168.97888)" /><path
       style="fill:none;stroke:#000000;stroke-width:0.211667;stroke-linecap:square;stroke-dasharray:none;paint-order:stroke fill markers"
       d="m 146.03591,139.72651 c 1.53695,-0.86031 3.07392,-1.72062 4.61088,-2.58093"
       id="path37"
       transform="matrix(0,2.2440734,-2.2440734,0,442.99611,-168.97888)" /><path
       style="fill:none;stroke:#000000;stroke-width:0.211667;stroke-linecap:square;stroke-dasharray:none;paint-order:stroke fill markers"
       d="m 151.76947,137.17458 c -1.432,0.84649 -2.86402,1.693 -4.29603,2.5395"
       id="path38"
       transform="matrix(0,2.2440734,-2.2440734,0,442.99611,-168.97888)" /><path
       style="fill:none;stroke:#000000;stroke-width:0.211667;stroke-linecap:square;stroke-dasharray:none;paint-order:stroke fill markers"
       d="m 158.78314,137.30271 c -0.44903,0.12044 -0.92676,0.24858 -1.33068,0.34982 -0.40391,0.10123 -0.8443,0.20322 -2.15539,0.53593 -1.31109,0.33271 -3.51922,0.90224 -4.89397,1.20082 -1.37476,0.29857 -1.91606,0.32617 -2.49882,0.34549 -0.58275,0.0193 -1.20691,0.0303 -4.01022,0.0331 -2.80331,0.003 -7.78555,-0.003 -12.76789,-0.008 -2.8723,-0.88379 -5.74461,-1.76757 -8.61691,-2.65136 4.84977,-0.0663 9.69955,-0.13257 14.4969,-0.14637 4.79734,-0.0138 5.07473,-0.0115 11.61229,0.10661 6.53757,0.11816 6.65393,0.12302 8.64359,0.20607 z"
       id="path47"
       transform="matrix(0,2.2440734,2.2440734,0,-221.74886,-169.92549)" /><path
       style="fill:none;stroke:#000000;stroke-width:0.211667;stroke-linecap:square;stroke-dasharray:none;paint-order:stroke fill markers"
       d="m 137.09586,137.00473 c 0.15328,0.32727 0.30657,0.65455 0.42464,1.006 0.11807,0.35145 0.20092,0.72704 0.25478,1.01911 0.0539,0.29206 0.0787,0.50057 0.10359,0.7091"
       id="path48"
       transform="matrix(0,2.2440734,2.2440734,0,-221.74886,-169.92549)" /><path
       style="fill:none;stroke:#000000;stroke-width:0.211667;stroke-linecap:square;stroke-dasharray:none;paint-order:stroke fill markers"
       d="m 138.52097,137.00472 c 0.0677,0.26653 0.13533,0.53304 0.21197,0.84029 0.0766,0.30725 0.16226,0.65525 0.21474,0.98114 0.0525,0.3259 0.0718,0.6297 0.0911,0.9335"
       id="path49"
       transform="matrix(0,2.2440734,2.2440734,0,-221.74886,-169.92549)" /><path
       style="fill:none;stroke:#000000;stroke-width:0.211667;stroke-linecap:square;stroke-dasharray:none;paint-order:stroke fill markers"
       d="m 146.03591,139.72651 c 1.53695,-0.86031 3.07392,-1.72062 4.61088,-2.58093"
       id="path50"
       transform="matrix(0,2.2440734,2.2440734,0,-221.74886,-169.92549)" /><path
       style="fill:none;stroke:#000000;stroke-width:0.211667;stroke-linecap:square;stroke-dasharray:none;paint-order:stroke fill markers"
       d="m 151.76947,137.17458 c -1.432,0.84649 -2.86402,1.693 -4.29603,2.5395"
       id="path51"
       transform="matrix(0,2.2440734,2.2440734,0,-221.74886,-169.92549)" /><path
       style="fill:none;stroke:#000000;stroke-width:0.474996;stroke-linecap:square;stroke-dasharray:none;paint-order:stroke fill markers"
       d="m 127.90494,171.43797 c 0.18514,0.58068 0.72708,3.38602 1.09742,5.08287 1.02687,4.70499 1.76016,8.71405 2.82616,14.16807 -1.23955,0.39666 -2.47907,0.79333 -4.67308,1.15278 -2.19403,0.35948 -5.34242,0.68175 -8.30498,0.90488 -2.96255,0.22306 -5.72591,0.47473 -8.69289,0.47473 -2.9352,0 -4.79614,-0.26679 -7.75803,-0.49845 -2.961897,-0.23166 -6.109347,-0.56302 -8.302327,-0.9288 -2.19297,-0.36581 -3.43134,-0.76604 -4.66976,-1.16627 1.08174,-5.45092 1.76957,-9.45906 2.82112,-14.1533 0.38091,-1.7004 1.0666,-4.58002 1.26289,-5.07282 0.20107,-0.50505 0.27809,-1.18249 0.74652,-1.46973 9.335987,-5.72495 31.988097,-0.67747 32.854577,0.0224 0.30867,0.24923 0.4724,0.48023 0.79238,1.48394 z"
       id="path60" /><path
       style="fill:none;stroke:#000000;stroke-width:0.211667;stroke-linecap:square;stroke-dasharray:none;paint-order:stroke fill markers"
       d="m 104.92233,159.71431 c -0.19716,-0.13916 -0.39431,-0.27831 -0.55917,-0.50807 -0.16486,-0.22977 -0.29743,-0.55014 -0.4079,-0.96994 -0.11048,-0.4198 -0.19885,-0.93902 -0.30656,-1.63224 -0.10772,-0.69323 -0.23476,-1.56042 -0.33971,-2.39174 -0.10495,-0.83131 -0.1878,-1.62671 -0.25133,-2.32546 -0.0635,-0.69876 -0.10771,-1.30082 -0.1519,-2.01062 -0.0442,-0.7098 -0.0884,-1.5273 -0.042,-2.77141 0.0464,-1.24411 0.18325,-2.91476 0.32005,-4.21686 0.1368,-1.3021 0.2735,-2.23557 0.41215,-3.00502 0.13866,-0.76945 0.27927,-1.37484 0.41207,-1.85331 0.1328,-0.47847 0.25778,-0.82998 0.43402,-1.08239 0.17624,-0.25241 0.40372,-0.40569 0.63121,-0.55897"
       id="path66"
       transform="matrix(0,2.2440734,-2.2440734,0,442.99611,-168.97888)" /><path
       style="fill:none;stroke:#000000;stroke-width:0.211667;stroke-linecap:square;stroke-dasharray:none;paint-order:stroke fill markers"
       d="m 104.05747,137.99484 c 0.17677,-0.006 0.35352,-0.0111 0.53028,-0.0166 -0.0276,0.32037 -0.0553,0.64073 -0.1188,1.06468 -0.0635,0.42395 -0.16295,0.95145 -0.24167,1.3602 -0.0787,0.40876 -0.1367,0.69875 -0.22094,0.91003 -0.0842,0.21128 -0.21548,0.36877 -0.31079,0.41586 -0.0953,0.0471 -0.24296,0.0274 -0.36724,0.0109"
       id="path68"
       transform="matrix(0,2.2440734,-2.2440734,0,442.94044,-168.90437)" /><path
       style="fill:none;stroke:#000000;stroke-width:0.211667;stroke-linecap:square;stroke-dasharray:none;paint-order:stroke fill markers"
       d="m 104.05747,137.99484 c 0.17677,-0.006 0.35352,-0.0111 0.53028,-0.0166 -0.0276,0.32037 -0.0553,0.64073 -0.1188,1.06468 -0.0635,0.42395 -0.16295,0.95145 -0.24167,1.3602 -0.0787,0.40876 -0.1367,0.69875 -0.22094,0.91003 -0.0842,0.21128 -0.19271,0.34145 -0.31221,0.4005 -0.1195,0.059 -0.24154,0.0428 -0.36582,0.0262"
       id="path69"
       transform="matrix(0,2.2440734,2.2440734,0,-221.34917,-168.97887)" /><path
       style="fill:none;stroke:#000000;stroke-width:0.211667;stroke-linecap:square;stroke-dasharray:none;paint-order:stroke fill markers"
       d="m 122.17702,137.59105 c -0.0885,-0.0263 -0.177,-0.0525 -0.33283,-0.0519 -0.15583,6.8e-4 -0.4887,0.0419 -1.94725,0.0833 -1.45855,0.0414 -10.24443,0.25662 -15.2037,0.37812"
       id="path71"
       transform="matrix(0,2.2440734,-2.2440734,0,442.99611,-168.97888)" /><path
       style="fill:none;stroke:#000000;stroke-width:0.211667;stroke-linecap:square;stroke-dasharray:none;paint-order:stroke fill markers"
       d="m 122.02088,158.50539 c -0.11289,0.0435 -0.195,0.0751 -3.85919,-0.0171 -3.66419,-0.0922 -7.77258,-0.2292 -13.41914,-0.41753"
       id="path72"
       transform="matrix(0,2.2440734,-2.2440734,0,442.99611,-168.97888)" /><path
       style="display:inline;fill:none;stroke:#000000;stroke-width:0.474996;stroke-linecap:square;stroke-dasharray:none;stroke-opacity:1;paint-order:stroke fill markers"
       d="m 83.064333,72.342331 c 0.19142,-1.12664 0.17391,-2.00549 0.44571,-2.96844 0.16382,-0.58003 0.52115,-1.09091 0.70599,-1.66457 0.40907,-1.26956 0.42339,-3.14192 0.88215,-3.90305 0.45877,-0.76112 1.18451,-1.17071 2.6794,-1.61113 1.49491,-0.4404 3.75886,-0.91159 5.9217,-1.26047 2.16284,-0.34887 4.22445,-0.57549 6.707397,-0.78891 2.48296,-0.21341 7.8668,-0.57127 9.91383,-0.66171 h 0.72104 c 2.04702,0.0904 7.43087,0.44824 9.91382,0.66171 2.48296,0.21342 4.54456,0.44004 6.7074,0.78891 2.16284,0.34888 4.4268,0.82007 5.92171,1.26047 1.49489,0.44042 2.22062,0.85001 2.6794,1.61113 0.45876,0.76113 0.56903,1.88467 0.88215,3.90305 0.0859,0.55339 0.27326,1.23626 0.42767,1.85011 0.26615,1.05803 0.66539,2.01147 0.85946,3.15815 m -0.0922,12.67776 c -0.27757,2.66899 -0.55741,5.34917 -0.54664,8.02613 0.0157,4.17938 0.25511,8.311969 0.30044,12.506789 0.11624,10.77115 1.27818,31.1683 1.50158,41.77679 0.22328,10.60852 0.18738,11.42732 0.18558,12.08441 -0.002,0.65708 0.0312,1.15242 0.15552,1.91902 0.12409,0.76659 0.31176,1.82292 0.47827,2.91119 m -0.1021,12.79977 c -0.1149,0.97164 -0.22833,1.82324 -0.30187,2.44969 -0.14138,1.20485 -0.13532,1.57667 -0.16292,2.15979 -0.0276,0.58312 -0.0891,1.37752 -0.11939,3.31198 -0.0303,1.93446 -0.0294,5.00889 -0.10502,7.20447 -0.0756,2.19555 -0.22759,3.51213 -0.38567,4.45691 -0.15798,0.9448 -0.32227,1.51773 -0.67255,2.08135 -0.35027,0.56362 -0.88667,1.11786 -1.48768,1.51204 -0.60101,0.39414 -1.2666,0.6282 -2.88676,0.86549 -1.62015,0.23731 -4.19475,0.47783 -8.04702,0.67731 -3.85229,0.19949 -8.9821,0.3579 -12.04933,0.44158 l -3.20653,0.0837 -3.62252,-0.0837 c -3.06722,-0.0837 -8.197037,-0.24209 -12.049327,-0.44158 -3.85226,-0.1995 -6.42687,-0.44 -8.04702,-0.67731 -1.62015,-0.23729 -2.28574,-0.47135 -2.88675,-0.86549 -0.60101,-0.39418 -1.13741,-0.94842 -1.48769,-1.51204 -0.35028,-0.56362 -0.51456,-1.13655 -0.67255,-2.08135 -0.15798,-0.94478 -0.31004,-2.26136 -0.38566,-4.45691 -0.0756,-2.19558 -0.0747,-5.27001 -0.10503,-7.20447 -0.0303,-1.93446 -0.0918,-2.72886 -0.11938,-3.31198 -0.0276,-0.58312 -0.0224,-0.95506 -0.16292,-2.15979 -0.0727,-0.62024 -0.18469,-1.46122 -0.29844,-2.4209 m -0.1333,-12.84708 c 0.16651,-1.08824 0.3821,-1.92166 0.50611,-2.89263 0.0812,-0.6366 0.12477,-1.278 0.15551,-1.91902 0.19367,-4.02394 -0.0377,-1.47588 0.18559,-12.0844 0.22328,-10.6085 1.38533,-31.00565 1.50157,-41.77679 0.0453,-4.19483 0.2841,-8.327409 0.30044,-12.506799 0.009,-2.52153 -0.23762,-5.23147 -0.49834,-7.74669"
       id="path74" /></g></svg>
